<?xml version="1.0" encoding="iso-8859-1"?>
<!-- Generator: Adobe Illustrator 19.0.0, SVG Export Plug-In . SVG Version: 6.00 Build 0)  -->
<svg version="1.1" id="Layer_1" xmlns="http://www.w3.org/2000/svg" xmlns:xlink="http://www.w3.org/1999/xlink" x="0px" y="0px"
	 viewBox="0 0 512 512" style="enable-background:new 0 0 512 512;" xml:space="preserve">
<g>
	<g>
		<path d="M437.02,74.98C388.666,26.628,324.38,0,256,0S123.333,26.628,74.981,74.98C26.63,123.332,0,187.619,0,256
			s26.628,132.667,74.981,181.02C123.334,485.373,187.62,512,256,512s132.666-26.628,181.02-74.98
			C485.372,388.666,512,324.38,512,256S485.372,123.334,437.02,74.98z M413.409,413.409c-42.046,42.044-97.948,65.2-157.409,65.2
			s-115.362-23.156-157.408-65.2C56.547,371.362,33.391,315.461,33.391,256S56.547,140.637,98.592,98.591
			c42.045-42.044,97.947-65.2,157.408-65.2s115.363,23.156,157.409,65.2c42.044,42.046,65.2,97.948,65.2,157.409
			S455.453,371.362,413.409,413.409z"/>
	</g>
</g>
<g>
	<g>
		<path d="M256,66.783C151.666,66.783,66.783,151.666,66.783,256S151.666,445.217,256,445.217S445.217,360.334,445.217,256
			S360.334,66.783,256,66.783z M272.691,410.93v-21.365c0-9.22-7.475-16.696-16.696-16.696c-9.22,0-16.696,7.475-16.696,16.696
			v21.364c-72.503-7.761-130.283-65.448-138.192-137.906h21.65c9.22,0,16.696-7.475,16.696-16.696
			c0-9.22-7.475-16.696-16.696-16.696h-21.725c7.631-72.766,65.546-130.776,138.267-138.561v22.019
			c0,9.22,7.475,16.696,16.696,16.696c9.222,0,16.696-7.475,16.696-16.696v-22.02c72.725,7.78,130.645,65.793,138.276,138.562
			h-21.734c-9.22,0-16.696,7.475-16.696,16.696c0,9.22,7.476,16.696,16.697,16.696h21.66
			C402.983,345.484,345.198,403.173,272.691,410.93z"/>
	</g>
</g>
<g>
	<g>
		<path d="M327.603,185.048c-6.518-6.52-17.09-6.52-23.611,0l-47.669,47.668l-57.909-57.908c-6.519-6.519-17.091-6.519-23.611,0
			c-6.519,6.519-6.519,17.091,0,23.611l69.716,69.714c3.26,3.261,7.532,4.891,11.805,4.891c4.272,0,8.546-1.631,11.805-4.891
			l59.475-59.474C334.123,202.14,334.123,191.568,327.603,185.048z"/>
	</g>
</g>
<g>
</g>
<g>
</g>
<g>
</g>
<g>
</g>
<g>
</g>
<g>
</g>
<g>
</g>
<g>
</g>
<g>
</g>
<g>
</g>
<g>
</g>
<g>
</g>
<g>
</g>
<g>
</g>
<g>
</g>
</svg>
